<svg xmlns="http://www.w3.org/2000/svg" width="23.511" height="18.485" viewBox="0 0 23.511 18.485"><g opacity="0.12"><g transform="translate(0 0)"><path d="M2.125,5.271l8.468,7.534a1.99,1.99,0,0,0,1.427.464,1.985,1.985,0,0,0,1.426-.464l8.468-7.534c.679-.6.525-1.092-.336-1.092H2.463C1.6,4.179,1.448,4.671,2.125,5.271Z" transform="translate(-0.266 -4.179)" fill="#010002"/><path d="M22.261,7.412,13.007,15.3a2.045,2.045,0,0,1-2.5,0L1.249,7.412C.562,6.827,0,7.141,0,8.109V21.056a1.678,1.678,0,0,0,1.567,1.76H21.943a1.678,1.678,0,0,0,1.567-1.76V8.109C23.511,7.141,22.948,6.827,22.261,7.412Z" transform="translate(0 -4.332)" fill="#010002"/></g></g></svg>