<svg xmlns="http://www.w3.org/2000/svg" width="17.538" height="25.458" viewBox="0 0 17.538 25.458"><g opacity="0.12"><path d="M84.029,6.336a7.932,7.932,0,0,0-.411-1.018A8.722,8.722,0,0,0,66.905,7.9V8.984c0,.045.016.453.038.656.317,2.534,2.317,5.228,3.81,7.762,1.607,2.715,3.274,5.386,4.926,8.056,1.019-1.742,2.033-3.508,3.029-5.2.271-.5.586-1,.858-1.471.181-.317.527-.633.685-.928,1.607-2.942,4.193-5.906,4.193-8.826V7.83A9.034,9.034,0,0,0,84.029,6.336Zm-8.4,5.454a3.113,3.113,0,0,1-2.98-2.127,2.951,2.951,0,0,1-.084-.792v-.7a2.947,2.947,0,0,1,3.161-2.9,3.2,3.2,0,0,1,3.211,3.259A3.287,3.287,0,0,1,75.626,11.79Z" transform="translate(-66.905)"/></g></svg>